<mxfile host="app.diagrams.net" modified="2024-03-13T18:46:30.734Z" agent="Mozilla/5.0 (Windows NT 10.0; Win64; x64) AppleWebKit/537.36 (KHTML, like Gecko) Chrome/122.0.0.0 Safari/537.36" etag="9tq_76YueFHD_TCyThCq" version="23.1.7" type="device">
  <diagram name="Página-1" id="GV3RFwnHuFD10DOOWakn">
    <mxGraphModel dx="864" dy="492" grid="1" gridSize="10" guides="1" tooltips="1" connect="1" arrows="1" fold="1" page="1" pageScale="1" pageWidth="827" pageHeight="1169" background="#E1D5E7" math="0" shadow="0">
      <root>
        <mxCell id="0" />
        <mxCell id="1" parent="0" />
        <mxCell id="DwoN2AyIk6z6AsqAFvHY-1" value="&lt;font style=&quot;font-size: 31px;&quot;&gt;&lt;b&gt;Gerenciamento de Tarefas&lt;/b&gt;&lt;/font&gt;" style="rounded=1;whiteSpace=wrap;html=1;fillColor=#fff2cc;strokeColor=#d6b656;gradientColor=#ffd966;" vertex="1" parent="1">
          <mxGeometry x="260" y="30" width="400" height="60" as="geometry" />
        </mxCell>
        <mxCell id="DwoN2AyIk6z6AsqAFvHY-8" value="possui" style="strokeWidth=2;html=1;shape=mxgraph.flowchart.decision;whiteSpace=wrap;fillColor=#f8cecc;strokeColor=#b85450;gradientColor=#ea6b66;" vertex="1" parent="1">
          <mxGeometry x="430" y="145" width="60" height="70" as="geometry" />
        </mxCell>
        <mxCell id="DwoN2AyIk6z6AsqAFvHY-9" style="edgeStyle=orthogonalEdgeStyle;rounded=0;orthogonalLoop=1;jettySize=auto;html=1;exitX=1;exitY=0.5;exitDx=0;exitDy=0;exitPerimeter=0;entryX=0;entryY=0.5;entryDx=0;entryDy=0;entryPerimeter=0;" edge="1" parent="1" target="DwoN2AyIk6z6AsqAFvHY-8">
          <mxGeometry relative="1" as="geometry">
            <mxPoint x="240" y="180" as="sourcePoint" />
          </mxGeometry>
        </mxCell>
        <mxCell id="DwoN2AyIk6z6AsqAFvHY-10" style="edgeStyle=orthogonalEdgeStyle;rounded=0;orthogonalLoop=1;jettySize=auto;html=1;entryX=1;entryY=0.5;entryDx=0;entryDy=0;entryPerimeter=0;" edge="1" parent="1" target="DwoN2AyIk6z6AsqAFvHY-8">
          <mxGeometry relative="1" as="geometry">
            <mxPoint x="670" y="180" as="sourcePoint" />
          </mxGeometry>
        </mxCell>
        <mxCell id="DwoN2AyIk6z6AsqAFvHY-11" value="1" style="text;html=1;align=center;verticalAlign=middle;resizable=0;points=[];autosize=1;strokeColor=none;fillColor=none;" vertex="1" parent="1">
          <mxGeometry x="315" y="158" width="30" height="30" as="geometry" />
        </mxCell>
        <mxCell id="DwoN2AyIk6z6AsqAFvHY-12" value="N" style="text;html=1;align=center;verticalAlign=middle;resizable=0;points=[];autosize=1;strokeColor=none;fillColor=none;" vertex="1" parent="1">
          <mxGeometry x="585" y="158" width="30" height="30" as="geometry" />
        </mxCell>
        <mxCell id="DwoN2AyIk6z6AsqAFvHY-13" value="idUsuario" style="ellipse;whiteSpace=wrap;html=1;fillColor=#fff2cc;strokeColor=#d6b656;gradientColor=#ffd966;" vertex="1" parent="1">
          <mxGeometry x="40" y="240" width="90" height="50" as="geometry" />
        </mxCell>
        <mxCell id="DwoN2AyIk6z6AsqAFvHY-17" style="edgeStyle=orthogonalEdgeStyle;rounded=0;orthogonalLoop=1;jettySize=auto;html=1;exitX=0.5;exitY=1;exitDx=0;exitDy=0;" edge="1" parent="1">
          <mxGeometry relative="1" as="geometry">
            <mxPoint x="230" y="280" as="sourcePoint" />
            <mxPoint x="230" y="280" as="targetPoint" />
          </mxGeometry>
        </mxCell>
        <mxCell id="DwoN2AyIk6z6AsqAFvHY-18" value="senha" style="ellipse;whiteSpace=wrap;html=1;fillColor=#fff2cc;strokeColor=#d6b656;gradientColor=#ffd966;" vertex="1" parent="1">
          <mxGeometry x="210" y="310" width="90" height="50" as="geometry" />
        </mxCell>
        <mxCell id="DwoN2AyIk6z6AsqAFvHY-19" value="email" style="ellipse;whiteSpace=wrap;html=1;fillColor=#fff2cc;strokeColor=#d6b656;gradientColor=#ffd966;" vertex="1" parent="1">
          <mxGeometry x="255" y="240" width="90" height="50" as="geometry" />
        </mxCell>
        <mxCell id="DwoN2AyIk6z6AsqAFvHY-20" value="idTarefa" style="ellipse;whiteSpace=wrap;html=1;fillColor=#fff2cc;strokeColor=#d6b656;gradientColor=#ffd966;" vertex="1" parent="1">
          <mxGeometry x="585" y="240" width="90" height="50" as="geometry" />
        </mxCell>
        <mxCell id="DwoN2AyIk6z6AsqAFvHY-21" value="descrição" style="ellipse;whiteSpace=wrap;html=1;fillColor=#fff2cc;strokeColor=#d6b656;gradientColor=#ffd966;" vertex="1" parent="1">
          <mxGeometry x="630" y="320" width="90" height="50" as="geometry" />
        </mxCell>
        <mxCell id="DwoN2AyIk6z6AsqAFvHY-23" value="data de vencimento" style="ellipse;whiteSpace=wrap;html=1;fillColor=#fff2cc;strokeColor=#d6b656;gradientColor=#ffd966;" vertex="1" parent="1">
          <mxGeometry x="750" y="320" width="90" height="50" as="geometry" />
        </mxCell>
        <mxCell id="DwoN2AyIk6z6AsqAFvHY-24" value="" style="endArrow=none;html=1;rounded=0;exitX=0.778;exitY=0.02;exitDx=0;exitDy=0;exitPerimeter=0;" edge="1" parent="1" source="DwoN2AyIk6z6AsqAFvHY-13">
          <mxGeometry width="50" height="50" relative="1" as="geometry">
            <mxPoint x="110" y="240" as="sourcePoint" />
            <mxPoint x="150" y="200" as="targetPoint" />
          </mxGeometry>
        </mxCell>
        <mxCell id="DwoN2AyIk6z6AsqAFvHY-27" value="" style="endArrow=none;html=1;rounded=0;exitX=0.333;exitY=0;exitDx=0;exitDy=0;exitPerimeter=0;entryX=0.592;entryY=1;entryDx=0;entryDy=0;entryPerimeter=0;" edge="1" parent="1" source="DwoN2AyIk6z6AsqAFvHY-18" target="DwoN2AyIk6z6AsqAFvHY-59">
          <mxGeometry width="50" height="50" relative="1" as="geometry">
            <mxPoint x="195" y="290" as="sourcePoint" />
            <mxPoint x="206" y="210" as="targetPoint" />
            <Array as="points" />
          </mxGeometry>
        </mxCell>
        <mxCell id="DwoN2AyIk6z6AsqAFvHY-31" value="" style="endArrow=none;html=1;rounded=0;exitX=0.244;exitY=0.08;exitDx=0;exitDy=0;exitPerimeter=0;" edge="1" parent="1" source="DwoN2AyIk6z6AsqAFvHY-19">
          <mxGeometry width="50" height="50" relative="1" as="geometry">
            <mxPoint x="259" y="241" as="sourcePoint" />
            <mxPoint x="230" y="200" as="targetPoint" />
          </mxGeometry>
        </mxCell>
        <mxCell id="DwoN2AyIk6z6AsqAFvHY-34" value="idUsuario" style="ellipse;whiteSpace=wrap;html=1;align=center;fontStyle=4;fillColor=#fff2cc;strokeColor=#d6b656;gradientColor=#ffd966;" vertex="1" parent="1">
          <mxGeometry x="790" y="240" width="90" height="45" as="geometry" />
        </mxCell>
        <mxCell id="DwoN2AyIk6z6AsqAFvHY-35" value="" style="endArrow=none;html=1;rounded=0;entryX=0.317;entryY=1;entryDx=0;entryDy=0;exitX=0.611;exitY=0.04;exitDx=0;exitDy=0;exitPerimeter=0;entryPerimeter=0;" edge="1" parent="1" source="DwoN2AyIk6z6AsqAFvHY-21" target="DwoN2AyIk6z6AsqAFvHY-60">
          <mxGeometry width="50" height="50" relative="1" as="geometry">
            <mxPoint x="690" y="300" as="sourcePoint" />
            <mxPoint x="713" y="210" as="targetPoint" />
          </mxGeometry>
        </mxCell>
        <mxCell id="DwoN2AyIk6z6AsqAFvHY-36" value="" style="endArrow=none;html=1;rounded=0;" edge="1" parent="1">
          <mxGeometry width="50" height="50" relative="1" as="geometry">
            <mxPoint x="650" y="240" as="sourcePoint" />
            <mxPoint x="690" y="200" as="targetPoint" />
          </mxGeometry>
        </mxCell>
        <mxCell id="DwoN2AyIk6z6AsqAFvHY-38" value="" style="endArrow=none;html=1;rounded=0;exitX=0.289;exitY=0.06;exitDx=0;exitDy=0;exitPerimeter=0;" edge="1" parent="1" source="DwoN2AyIk6z6AsqAFvHY-23">
          <mxGeometry width="50" height="50" relative="1" as="geometry">
            <mxPoint x="720" y="285" as="sourcePoint" />
            <mxPoint x="750" y="200" as="targetPoint" />
            <Array as="points" />
          </mxGeometry>
        </mxCell>
        <mxCell id="DwoN2AyIk6z6AsqAFvHY-41" value="" style="endArrow=none;html=1;rounded=0;exitX=0.222;exitY=0.044;exitDx=0;exitDy=0;exitPerimeter=0;" edge="1" parent="1" source="DwoN2AyIk6z6AsqAFvHY-34">
          <mxGeometry width="50" height="50" relative="1" as="geometry">
            <mxPoint x="820" y="260" as="sourcePoint" />
            <mxPoint x="770" y="200" as="targetPoint" />
          </mxGeometry>
        </mxCell>
        <mxCell id="DwoN2AyIk6z6AsqAFvHY-42" value="status" style="strokeWidth=2;html=1;shape=mxgraph.flowchart.start_1;whiteSpace=wrap;fillColor=#fff2cc;strokeColor=#d6b656;gradientColor=#ffd966;" vertex="1" parent="1">
          <mxGeometry x="685" y="400" width="90" height="50" as="geometry" />
        </mxCell>
        <mxCell id="DwoN2AyIk6z6AsqAFvHY-45" value="" style="endArrow=none;html=1;rounded=0;entryX=0.5;entryY=1;entryDx=0;entryDy=0;" edge="1" parent="1" target="DwoN2AyIk6z6AsqAFvHY-60">
          <mxGeometry width="50" height="50" relative="1" as="geometry">
            <mxPoint x="729.5" y="400" as="sourcePoint" />
            <mxPoint x="730" y="210" as="targetPoint" />
          </mxGeometry>
        </mxCell>
        <mxCell id="DwoN2AyIk6z6AsqAFvHY-47" value="A fazer" style="strokeWidth=2;html=1;shape=mxgraph.flowchart.start_1;whiteSpace=wrap;fillColor=#fff2cc;strokeColor=#d6b656;gradientColor=#ffd966;" vertex="1" parent="1">
          <mxGeometry x="600" y="470" width="90" height="50" as="geometry" />
        </mxCell>
        <mxCell id="DwoN2AyIk6z6AsqAFvHY-48" value="Em andamento" style="strokeWidth=2;html=1;shape=mxgraph.flowchart.start_1;whiteSpace=wrap;fillColor=#fff2cc;strokeColor=#d6b656;gradientColor=#ffd966;" vertex="1" parent="1">
          <mxGeometry x="685" y="535" width="90" height="50" as="geometry" />
        </mxCell>
        <mxCell id="DwoN2AyIk6z6AsqAFvHY-49" value="Concluído" style="strokeWidth=2;html=1;shape=mxgraph.flowchart.start_1;whiteSpace=wrap;fillColor=#fff2cc;strokeColor=#d6b656;gradientColor=#ffd966;" vertex="1" parent="1">
          <mxGeometry x="765" y="470" width="90" height="50" as="geometry" />
        </mxCell>
        <mxCell id="DwoN2AyIk6z6AsqAFvHY-50" value="" style="endArrow=none;html=1;rounded=0;entryX=0.145;entryY=0.855;entryDx=0;entryDy=0;entryPerimeter=0;exitX=0.744;exitY=0.02;exitDx=0;exitDy=0;exitPerimeter=0;" edge="1" parent="1" source="DwoN2AyIk6z6AsqAFvHY-47" target="DwoN2AyIk6z6AsqAFvHY-42">
          <mxGeometry width="50" height="50" relative="1" as="geometry">
            <mxPoint x="670" y="470" as="sourcePoint" />
            <mxPoint x="700" y="440" as="targetPoint" />
          </mxGeometry>
        </mxCell>
        <mxCell id="DwoN2AyIk6z6AsqAFvHY-54" value="" style="endArrow=none;html=1;rounded=0;exitX=0.145;exitY=0.145;exitDx=0;exitDy=0;exitPerimeter=0;entryX=0.855;entryY=0.855;entryDx=0;entryDy=0;entryPerimeter=0;" edge="1" parent="1" source="DwoN2AyIk6z6AsqAFvHY-49" target="DwoN2AyIk6z6AsqAFvHY-42">
          <mxGeometry width="50" height="50" relative="1" as="geometry">
            <mxPoint x="810" y="490" as="sourcePoint" />
            <mxPoint x="770" y="450" as="targetPoint" />
          </mxGeometry>
        </mxCell>
        <mxCell id="DwoN2AyIk6z6AsqAFvHY-56" value="" style="endArrow=none;html=1;rounded=0;entryX=0.5;entryY=1;entryDx=0;entryDy=0;entryPerimeter=0;" edge="1" parent="1" target="DwoN2AyIk6z6AsqAFvHY-42">
          <mxGeometry width="50" height="50" relative="1" as="geometry">
            <mxPoint x="729.5" y="535" as="sourcePoint" />
            <mxPoint x="729.5" y="465" as="targetPoint" />
          </mxGeometry>
        </mxCell>
        <mxCell id="DwoN2AyIk6z6AsqAFvHY-57" value="nome" style="ellipse;whiteSpace=wrap;html=1;fillColor=#fff2cc;strokeColor=#d6b656;gradientColor=#ffd966;" vertex="1" parent="1">
          <mxGeometry x="80" y="310" width="90" height="50" as="geometry" />
        </mxCell>
        <mxCell id="DwoN2AyIk6z6AsqAFvHY-58" value="" style="endArrow=none;html=1;rounded=0;entryX=0.417;entryY=0.95;entryDx=0;entryDy=0;entryPerimeter=0;" edge="1" parent="1" target="DwoN2AyIk6z6AsqAFvHY-59">
          <mxGeometry width="50" height="50" relative="1" as="geometry">
            <mxPoint x="140" y="310" as="sourcePoint" />
            <mxPoint x="180" y="210" as="targetPoint" />
          </mxGeometry>
        </mxCell>
        <mxCell id="DwoN2AyIk6z6AsqAFvHY-59" value="Usuário" style="rounded=0;whiteSpace=wrap;html=1;fillColor=#d5e8d4;strokeColor=#82b366;gradientColor=#97d077;" vertex="1" parent="1">
          <mxGeometry x="140" y="145" width="120" height="60" as="geometry" />
        </mxCell>
        <mxCell id="DwoN2AyIk6z6AsqAFvHY-60" value="Tarefa" style="rounded=0;whiteSpace=wrap;html=1;fillColor=#d5e8d4;strokeColor=#82b366;gradientColor=#97d077;" vertex="1" parent="1">
          <mxGeometry x="670" y="140" width="120" height="60" as="geometry" />
        </mxCell>
      </root>
    </mxGraphModel>
  </diagram>
</mxfile>
